<?xml version="1.0" encoding="utf-8"?>
<!-- Generator: Adobe Illustrator 16.0.3, SVG Export Plug-In . SVG Version: 6.00 Build 0)  -->
<!DOCTYPE svg PUBLIC "-//W3C//DTD SVG 1.1//EN" "http://www.w3.org/Graphics/SVG/1.1/DTD/svg11.dtd">
<svg version="1.1" id="Capa_1" xmlns="http://www.w3.org/2000/svg" xmlns:xlink="http://www.w3.org/1999/xlink" x="0px" y="0px"
	 width="285.25px" height="61.5px" viewBox="0 0 285.25 61.5" enable-background="new 0 0 285.25 61.5" xml:space="preserve">
<polygon id="rojo" fill="#E2231A" points="109.823,13.509 112.411,0.216 99.111,0.216 "/>
<g id="sri">
	<polygon fill="#0C4597" points="90.853,49.182 97.627,13.526 109.816,13.526 103.052,49.182 	"/>
	<path fill="#0C4597" d="M69.346,21.584h3.803c4.807,0,8.538-2.755,8.538-7.028c0-3.329-3.015-4.85-6.527-4.85
		c-1.724,0-2.872,0.142-3.59,0.289L69.346,21.584z M61.098,1.301C64.471,0.509,69.777,0,75.084,0c4.446,0,9.467,0.433,13.195,2.537
		c3.444,1.81,6.101,5.067,6.101,10.137c0,7.243-4.444,11.444-10.688,13.618l-0.071,0.293c2.65,1.375,3.801,4.344,4.305,8.545
		c0.646,4.929,1.074,12.021,2.011,14.052H77.383c-0.437-1.451-0.938-5.216-1.505-11.447c-0.438-5.573-2.3-6.948-6.026-6.948h-2.225
		l-3.443,18.396H52.06L61.098,1.301z"/>
	<path fill="#0C4597" d="M21.372,35.771c2.938,1.619,7.245,2.961,11.906,2.961c3.37,0.072,6.451-1.194,6.451-4.021
		c0-2.329-2.146-3.674-6.309-5.791c-4.662-2.471-10.188-6.141-10.188-12.706c0-10.092,8.968-16.092,20.232-16.092
		c6.387,0,9.824,1.199,12.12,2.26l-3.729,10.091c-1.646-0.771-5.235-2.117-9.252-1.97c-4.377,0-6.453,1.688-6.453,3.735
		c0,2.26,3.225,3.74,6.886,5.788c5.879,2.965,9.754,6.847,9.754,12.495c0,11.576-9.969,16.59-20.658,16.59
		c-7.535-0.141-12.408-1.838-14.776-3.463L21.372,35.771z"/>
</g>
<g id="app">
	<path fill="#4077BA" d="M132.481,34.775c0.883-1.307,1.729,0.572-0.359,3.843c-0.704,1.141-5.94,9.793-12.139,9.711
		c-7.406-0.162-7.634-6.037-6.973-10.367c0.666-4.325,5.589-13.064,9.761-10.281c3.091,2.203,0.763,6.122-0.717,9.057
		c-1.694,3.351-4.301,6.125-5.602,7.513c0.661,0.653,1.91,1.146,3.299,1.146C125.629,45.393,130.045,38.206,132.481,34.775
		 M120.874,29.964c-1.605-0.248-5.854,7.591-5.33,12.24c3.043-3.019,3.457-4.485,4.416-6.442
		C121.23,33.229,122.309,30.29,120.874,29.964"/>
	<path fill="#4077BA" d="M134.372,35.352c-0.242,0-0.964,1.309-2.248,3.27c-0.648,0.65-1.809-0.656-0.901-2.129
		c0.594-0.895,1.175-1.709,2.146-3.02c0.981-1.473,3.125-2.288,3.857,0.488c0.903,3.514-2.127,9.305-0.544,9.719
		c1.194,0.238,6.042-9.961,7.064-11.755c0.94-1.802,2.72-1.636,3.845-0.084c1.003,1.228-5.331,12.981,1.063,13.468
		c4.932,0.412,9.533-6.936,11.806-10.365c0.882-1.305,1.729,0.574-0.277,3.834c-0.706,1.146-5.726,9.309-11.819,9.063
		c-8.379-0.245-3.876-10.284-5.063-10.61c-0.629-0.164-3.767,10.039-7.819,9.793c-3.148-0.24-1.651-5.467-1.036-8.73
		C134.803,36.572,134.941,35.352,134.372,35.352"/>
	<path fill="#4077BA" d="M187.312,34.938c0.968-1.305,1.812,0.574-0.271,3.758c-0.705,1.144-6.063,10.121-13.931,9.716
		c-9.577-0.492-8.593-11.188-7.479-20.162c0.99-7.919,7.592-24.081,13.824-23.675c3.979,0.244,4.883,5.146,2.731,13.146
		c-2.799,10.854-10.397,21.547-13.356,24.571c1.205,2.285,3.084,3.672,5.455,3.672C180.246,45.96,185.043,38.37,187.312,34.938
		 M179.033,7.593c-3.07-0.245-8.64,9.799-10.969,20.818c-0.63,3.348-0.79,8.979-0.064,11.916c4.951-6.121,6.625-9.307,10.896-20.899
		C179.709,17.309,182.114,7.757,179.033,7.593"/>
	<path fill="#4077BA" d="M190.821,48.409c-6.377,0.086-6.151-7.507-5.821-8.978c0.371-1.799,1.439-5.472,1.439-5.472
		c0.746-1.47,3.253-1.308,3.086,0.164c-0.045,0.405-4.477,11.92,1.934,11.593c4.344-0.168,9.271-7.515,11.543-10.941
		c0.896-1.387,1.819,0.492-0.187,3.756C202.113,39.678,196.617,48.409,190.821,48.409 M193.705,21.224
		c1.062-1.387,1.395-1.465,2.231-0.242c0.913,1.307-0.271,2.369-0.271,2.369s-1.99,3.103-2.914,4.732
		c-0.924,1.633-1.727,2.207-2.395,1.633c-0.598-0.49-0.457-1.713-0.348-1.959C190.226,27.351,193.221,21.879,193.705,21.224"/>
	<path fill="#4077BA" d="M205.133,35.352c-0.24,0-0.963,1.309-2.248,3.27c-0.646,0.65-1.807-0.656-0.9-2.129
		c0.596-0.895,1.178-1.709,2.146-3.02c0.98-1.473,3.123-2.288,3.856,0.488c0.905,3.514-2.129,9.305-0.544,9.719
		c1.196,0.238,6.043-9.961,7.064-11.755c0.941-1.802,2.723-1.636,3.847-0.084c1.001,1.228-5.332,12.981,1.063,13.468
		c4.933,0.412,9.533-6.936,11.803-10.365c0.885-1.305,1.729,0.574-0.277,3.834c-0.705,1.146-5.727,9.309-11.816,9.063
		c-8.381-0.245-3.877-10.284-5.064-10.61c-0.63-0.164-3.77,10.039-7.82,9.793c-3.146-0.24-1.65-5.467-1.035-8.73
		C205.563,36.572,205.705,35.352,205.133,35.352"/>
	<path fill="#4077BA" d="M242.75,34.775c0.888-1.307,1.73,0.572-0.358,3.843c-0.703,1.141-5.944,9.793-12.136,9.711
		c-7.414-0.162-7.635-6.037-6.973-10.367c0.659-4.325,5.584-13.064,9.754-10.281c3.094,2.203,0.764,6.122-0.716,9.057
		c-1.692,3.351-4.299,6.125-5.601,7.513c0.662,0.653,1.908,1.146,3.299,1.146C235.897,45.393,240.313,38.206,242.75,34.775
		 M231.141,29.964c-1.604-0.248-5.854,7.591-5.329,12.24c3.046-3.019,3.458-4.485,4.417-6.442
		C231.498,33.229,232.576,30.29,231.141,29.964"/>
	<path fill="#4077BA" d="M255.254,48.083c-4.905,0.08-5.068-4.896-5.068-4.896s-3.559,5.39-6.4,5.308
		c-1.555,0-5.313-1.39-3.447-9.063c1.859-7.674,7.396-11.102,10-11.021c4.715,0.166,3.838,4.241,3.709,4.653
		c-0.896,2.119-1.646,1.549-2.188,1.306c0,0,0.883-3.431-1.882-3.506c-2.36-0.087-5.14,3.506-6.381,7.18
		c-1.332,3.761-1.202,7.595,0.762,7.595c3.021,0,6.483-8.166,7.054-10.205c0.258-0.818,3.2-0.162,2.887,1.146
		c-0.08,0-4.026,8.729,1.445,8.729c2.447,0,5.924-2.529,11.159-10.447c0.886-1.307,1.812,0.572-0.271,3.759
		C264.943,41.229,260.078,48.005,255.254,48.083"/>
</g>
</svg>
